# xmcd
#
# Track frame offsets:
#	150
#	11500
#	22515
#	35636
#	48943
#	65606
#	78966
#	96423
#	112234
#	130680
#	146189
#
# Disc length: 2055 seconds
#
# Revision: 2
# Processed by: cddbd v1.5.2PL0 Copyright (c) Steve Scherf et al.
# Submitted via: audiograbber 1.83.01
#
DISCID=8f08050b
DTITLE=Doug Moreland - Doug Moreland
DYEAR=2006
DGENRE=Country
TTITLE0=A Boy Like Me
TTITLE1=Never Gonna Go Back Home
TTITLE2=Honeymoonlight
TTITLE3=Dallas
TTITLE4=Forever In Your Arms
TTITLE5=Home To Me
TTITLE6=Not Afraid To Fall
TTITLE7=Houston
TTITLE8=Heaven Or Austin
TTITLE9=The Beer Song
TTITLE10=End Of The Trail
EXTD=Titel 7 heiﬂt: "Not Afraid To Fall", nicht "Not Afriad To Fall" wie im Fre
EXTD=edback eingetragen war.
EXTT0=
EXTT1=
EXTT2=
EXTT3=
EXTT4=
EXTT5=
EXTT6=
EXTT7=
EXTT8=
EXTT9=
EXTT10=
PLAYORDER=
